<svg preserveAspectRatio="none" width="100%" height="100%" overflow="visible" style="display: block;" viewBox="0 0 82 82" fill="none" xmlns="http://www.w3.org/2000/svg">
<g id="Container" opacity="0.1">
<path id="Icon" d="M49.25 52.75L52.75 49.25L43.5 40V28.5H38.5V42L49.25 52.75V52.75M41 66C37.5417 66 34.2917 65.3438 31.25 64.0312C28.2083 62.7188 25.5625 60.9375 23.3125 58.6875C21.0625 56.4375 19.2812 53.7917 17.9688 50.75C16.6562 47.7083 16 44.4583 16 41C16 37.5417 16.6562 34.2917 17.9688 31.25C19.2812 28.2083 21.0625 25.5625 23.3125 23.3125C25.5625 21.0625 28.2083 19.2812 31.25 17.9688C34.2917 16.6562 37.5417 16 41 16C44.4583 16 47.7083 16.6562 50.75 17.9688C53.7917 19.2812 56.4375 21.0625 58.6875 23.3125C60.9375 25.5625 62.7188 28.2083 64.0312 31.25C65.3438 34.2917 66 37.5417 66 41C66 44.4583 65.3438 47.7083 64.0312 50.75C62.7188 53.7917 60.9375 56.4375 58.6875 58.6875C56.4375 60.9375 53.7917 62.7188 50.75 64.0312C47.7083 65.3438 44.4583 66 41 66V66M41 41V41V41V41V41V41V41V41V41V41M41 61C46.5417 61 51.2604 59.0521 55.1562 55.1562C59.0521 51.2604 61 46.5417 61 41C61 35.4583 59.0521 30.7396 55.1562 26.8438C51.2604 22.9479 46.5417 21 41 21C35.4583 21 30.7396 22.9479 26.8438 26.8438C22.9479 30.7396 21 35.4583 21 41C21 46.5417 22.9479 51.2604 26.8438 55.1562C30.7396 59.0521 35.4583 61 41 61V61" fill="var(--fill-0, #84DA87)"/>
</g>
</svg>
