<svg preserveAspectRatio="none" width="100%" height="100%" overflow="visible" style="display: block;" viewBox="0 0 14.704 10.88" fill="none" xmlns="http://www.w3.org/2000/svg">
<g id="Container">
<path id="Icon" d="M3.04 10.72V2.976C3.04 2.79467 3.04267 2.6 3.048 2.392C3.05333 2.184 3.06133 1.968 3.072 1.744C2.70933 2.096 2.288 2.40267 1.808 2.664C1.328 2.92533 0.837333 3.11467 0.336 3.232L0 2.064C0.192 2.04267 0.434667 1.97067 0.728 1.848C1.02133 1.72533 1.33067 1.57067 1.656 1.384C1.98133 1.19733 2.28267 0.997333 2.56 0.784C2.83733 0.570667 3.05067 0.362667 3.2 0.16H4.32V10.72H3.04V10.72M11.12 0C11.6853 0 12.1787 0.0773333 12.6 0.232C13.0213 0.386667 13.3867 0.626667 13.696 0.952C14.0053 1.27733 14.2667 1.70133 14.48 2.224L13.296 2.784C13.136 2.29333 12.8773 1.90667 12.52 1.624C12.1627 1.34133 11.6693 1.2 11.04 1.2C10.5813 1.2 10.176 1.31467 9.824 1.544C9.472 1.77333 9.17333 2.09067 8.928 2.496C8.68267 2.90133 8.49867 3.376 8.376 3.92C8.25333 4.464 8.192 5.05067 8.192 5.68C8.192 5.70133 8.192 5.73333 8.192 5.776C8.192 5.81867 8.192 5.88267 8.192 5.968H8.256C8.37333 5.50933 8.58933 5.13867 8.904 4.856C9.21867 4.57333 9.576 4.36533 9.976 4.232C10.376 4.09867 10.768 4.032 11.152 4.032C11.8667 4.032 12.4907 4.17067 13.024 4.448C13.5573 4.72533 13.9707 5.12 14.264 5.632C14.5573 6.144 14.704 6.752 14.704 7.456C14.704 8.14933 14.5547 8.75467 14.256 9.272C13.9573 9.78933 13.5387 10.1867 13 10.464C12.4613 10.7413 11.8187 10.88 11.072 10.88C10.1867 10.88 9.44 10.6453 8.832 10.176C8.224 9.70667 7.76533 9.064 7.456 8.248C7.14667 7.432 6.992 6.496 6.992 5.44C6.992 4.256 7.17333 3.26133 7.536 2.456C7.89867 1.65067 8.392 1.04 9.016 0.624C9.64 0.208 10.3413 0 11.12 0V0M11.056 5.264C10.5973 5.264 10.1947 5.35733 9.848 5.544C9.50133 5.73067 9.232 5.98667 9.04 6.312C8.848 6.63733 8.752 7.01333 8.752 7.44C8.752 7.84533 8.85333 8.216 9.056 8.552C9.25867 8.888 9.53333 9.15467 9.88 9.352C10.2267 9.54933 10.6187 9.648 11.056 9.648C11.7813 9.648 12.3467 9.45333 12.752 9.064C13.1573 8.67467 13.36 8.13333 13.36 7.44C13.36 6.992 13.2693 6.60533 13.088 6.28C12.9067 5.95467 12.6453 5.704 12.304 5.528C11.9627 5.352 11.5467 5.264 11.056 5.264V5.264" fill="var(--fill-0, #F5DDDC)"/>
</g>
</svg>
